<?xml version="1.0" encoding="UTF-8" standalone="no"?>
<svg
   xmlns:dc="http://purl.org/dc/elements/1.1/"
   xmlns:cc="http://creativecommons.org/ns#"
   xmlns:rdf="http://www.w3.org/1999/02/22-rdf-syntax-ns#"
   xmlns:svg="http://www.w3.org/2000/svg"
   xmlns="http://www.w3.org/2000/svg"
   xmlns:sodipodi="http://sodipodi.sourceforge.net/DTD/sodipodi-0.dtd"
   xmlns:inkscape="http://www.inkscape.org/namespaces/inkscape"
   version="1.1"
   x="0px"
   y="0px"
   viewBox="0 0 90 90"
   xml:space="preserve"
   id="svg16"
   sodipodi:docname="noun_Soundwave_1786374_CROPPED_COLOR.svg"
   width="90"
   height="90"
   inkscape:export-filename="D:\Users\Jeffrey\Desktop\noun_Soundwave_1786374.png"
   inkscape:export-xdpi="96"
   inkscape:export-ydpi="96"
   inkscape:version="0.92.3 (2405546, 2018-03-11)"><metadata
     id="metadata22"><rdf:RDF><cc:Work
         rdf:about=""><dc:format>image/svg+xml</dc:format><dc:type
           rdf:resource="http://purl.org/dc/dcmitype/StillImage" /><dc:title></dc:title></cc:Work></rdf:RDF></metadata><defs
     id="defs20" /><sodipodi:namedview
     pagecolor="#ffffff"
     bordercolor="#666666"
     borderopacity="1"
     objecttolerance="10"
     gridtolerance="10"
     guidetolerance="10"
     inkscape:pageopacity="0"
     inkscape:pageshadow="2"
     inkscape:window-width="1920"
     inkscape:window-height="1017"
     id="namedview18"
     showgrid="false"
     fit-margin-top="0"
     fit-margin-left="0"
     fit-margin-right="0"
     fit-margin-bottom="0"
     inkscape:zoom="3.776"
     inkscape:cx="3.6228813"
     inkscape:cy="35.486852"
     inkscape:window-x="-8"
     inkscape:window-y="32"
     inkscape:window-maximized="1"
     inkscape:current-layer="layer2"
     inkscape:snap-global="false" /><g
     inkscape:groupmode="layer"
     id="layer2"
     inkscape:label="Background"
     style="display:inline"><circle
       style="fill:#ffffff;fill-opacity:1;fill-rule:nonzero;stroke:none;stroke-width:1.33333337;stroke-linecap:round;stroke-linejoin:round;stroke-miterlimit:4;stroke-dasharray:none;stroke-dashoffset:0;stroke-opacity:1;paint-order:markers stroke fill"
       id="path4564"
       cx="45.021187"
       cy="45.243645"
       r="43.432205" /></g><g
     inkscape:groupmode="layer"
     id="layer1"
     inkscape:label="Icon"
     style="display:inline"><path
       d="m 62.126,31.787 c -1.642,-3.497 -3.518,-5.981 -5.904,-5.981 -1.796,0 -3.362,2.126 -4.751,5.254 1.364,-0.887 2.92,-1.41 4.747,-1.41 2.35,0 4.271,0.824 5.908,2.137 z"
       id="path2"
       inkscape:connector-curvature="0"
       style="fill:#c621a5;fill-opacity:1" /><path
       d="m 27.514,51.683 c 1.698,2.743 3.633,4.667 6.258,4.667 2.284,0 4.05,-1.674 5.599,-4.172 -1.575,0.685 -3.401,1.112 -5.599,1.112 -2.51,0 -4.541,-0.626 -6.258,-1.607 z"
       id="path4"
       inkscape:connector-curvature="0"
       style="fill:#c621a5;fill-opacity:1" /><path
       d="m 27.877,58.222 c 1.64,3.493 3.515,5.971 5.898,5.971 1.796,0 3.362,-2.126 4.751,-5.255 -1.366,0.888 -2.925,1.411 -4.755,1.411 -2.344,0.001 -4.261,-0.819 -5.894,-2.127 z"
       id="path6"
       inkscape:connector-curvature="0"
       style="fill:#c621a5;fill-opacity:1" /><path
       d="M 45,0 C 20.147,0 0,20.147 0,45 0,69.853 20.147,90 45,90 69.853,90 90,69.853 90,45 90,20.147 69.853,0 45,0 Z m 35.667,56.48 c 0,1.104 -0.896,2 -2,2 -3.11,0 -5.447,-1.759 -7.347,-4.468 -0.127,-0.093 -0.246,-0.196 -0.348,-0.315 v 0 c -0.659,-0.764 -1.296,-1.637 -1.894,-2.6 v 0 l -0.032,-0.051 c -1.174,-1.202 -2.2,-2.526 -3.189,-3.812 -2.69,-3.5 -5.015,-6.524 -9.64,-6.524 -4.526,0 -6.846,2.407 -9.409,5.268 -3.044,11.489 -5.978,22.215 -13.033,22.215 -7.038,0 -10.126,-8.991 -13.112,-17.687 -2.53,-7.368 -5.146,-14.987 -9.33,-14.987 -1.104,0 -2,-0.896 -2,-2 0,-1.104 0.896,-2 2,-2 3.11,0 5.447,1.759 7.346,4.468 0.128,0.093 0.246,0.197 0.349,0.316 v 0 c 0.659,0.764 1.296,1.637 1.894,2.6 v 0 l 0.033,0.052 c 1.169,1.199 2.191,2.519 3.175,3.801 2.693,3.506 5.019,6.534 9.642,6.534 4.534,0 6.854,-2.404 9.415,-5.263 3.044,-11.492 5.978,-22.221 13.035,-22.221 7.039,0 10.128,8.992 13.114,17.687 2.53,7.368 5.147,14.986 9.331,14.986 1.104,10e-4 2,0.896 2,2.001 z"
       id="path8"
       inkscape:connector-curvature="0"
       style="fill:#c621a5;fill-opacity:1" /><path
       d="m 56.218,33.65 c -2.278,0 -4.041,1.674 -5.589,4.171 1.573,-0.684 3.395,-1.111 5.589,-1.111 2.513,0 4.545,0.626 6.262,1.607 -1.7,-2.744 -3.637,-4.667 -6.262,-4.667 z"
       id="path10"
       inkscape:connector-curvature="0"
       style="fill:#c621a5;fill-opacity:1" /></g></svg>